<?xml version="1.0" encoding="utf-8"?>
<!-- Generator: Adobe Illustrator 26.0.3, SVG Export Plug-In . SVG Version: 6.00 Build 0)  -->
<svg version="1.1" id="Слой_1" xmlns="http://www.w3.org/2000/svg" xmlns:xlink="http://www.w3.org/1999/xlink" x="0px" y="0px"
	 viewBox="0 0 1920 1080" style="enable-background:new 0 0 1920 1080;" xml:space="preserve">
<style type="text/css">
	.st0{fill:none;}
	.st1{font-family:'CenturyGothic';}
	.st2{font-size:178.8354px;}
	.st3{fill:#4F71D1;}
</style>
<rect x="553.5" y="223.81" class="st0" width="1266.5" height="609.82"/>
<text transform="matrix(1 0 0 1 732.9453 487.2319)"><tspan x="0" y="0" class="st1 st2">Школьный </tspan><tspan x="135.92" y="214.6" class="st1 st2">портал</tspan></text>
<g>
	<g>
		<path class="st3" d="M201,518.99c203.67,0,229.13-229.13,229.13-229.13"/>
		<path class="st3" d="M659.27,518.99c-203.67,0-229.13-229.13-229.13-229.13"/>
	</g>
	<g>
		<path class="st3" d="M659.27,544.45c-203.67,0-229.13,229.13-229.13,229.13"/>
		<path class="st3" d="M201,544.45c203.67,0,229.13,229.13,229.13,229.13"/>
	</g>
</g>
<g>
	<g>
		<path class="st3" d="M201,518.99c203.67,0,229.13-229.13,229.13-229.13"/>
		<path class="st3" d="M659.27,518.99c-203.67,0-229.13-229.13-229.13-229.13"/>
	</g>
	<g>
		<path class="st3" d="M659.27,544.45c-203.67,0-229.13,229.13-229.13,229.13"/>
		<path class="st3" d="M201,544.45c203.67,0,229.13,229.13,229.13,229.13"/>
	</g>
</g>
<g>
	<path d="M301.09,545c62.2-62.2,129.7-14.56,129.7-14.56"/>
	<path d="M559.17,545c-62.2-62.2-129.7-14.56-129.7-14.56"/>
</g>
<path d="M432,529c0,0-45.82,24.08-36,92l3-5l5,3c0,0-16.52-66.35,33-89"/>
</svg>
